<?xml version="1.0" encoding="UTF-8"?>
<svg width="1e3" height="1e3" version="1.1" viewBox="0 0 264.58 264.58" xmlns="http://www.w3.org/2000/svg" xmlns:xlink="http://www.w3.org/1999/xlink">
<defs>
<linearGradient id="a" x1="262.36" x2="262.36" y1="145.2" y2="102.9" gradientTransform="translate(19.188 12.382)" gradientUnits="userSpaceOnUse">
<stop stop-color="#eaad5b" offset="0"/>
<stop stop-color="#fdde43" offset=".47978"/>
<stop stop-color="#fff" offset=".77358"/>
</linearGradient>
</defs>
<g transform="matrix(4.7471 0 0 4.7471 -798.24 -494.87)" stroke-linecap="round" stroke-linejoin="round">
<path d="m195.9 116.4c-6.8743 0-12.664 4.6855-14.348 11.033l1.125 0.70228c1.403-6.0068 6.7851-10.472 13.223-10.472 6.4154 0 11.783 4.4333 13.21 10.408l1.1229-0.70228c-1.7068-6.3153-7.4814-10.969-14.332-10.969z" color="#000000" fill="#fff" fill-opacity=".6678" style="-inkscape-stroke:none"/>
<g transform="translate(19.188 12.382)" fill="#fff" stroke-width=".13229">
<path d="m168.99 111.2c-0.62507-1.5e-4 -1.2786 0.15029-1.9477 0.47439-3.4003 1.647-0.88744 6.5948 0.42374 8.3152 1.729 2.2687 3.931 3.2639 3.931 3.2639s-4.4874 5.7738-1.928 10.237c3.33 5.8067 10.382 2.4128 10.382 2.4128 0.73007 0.42935 0.75539 1.0552 0.76739 2.1224 0 0-3.9693 1.0389-3.0055 4.1936 1.3769 4.5068 7.3344 3.7769 7.8657-0.26097 0.5313-4.0378-3.6659-7.8104-3.6659-7.8104s2.8945-2.683 0.60617-6.9122c-2.6375-4.8745-7.6197-2.8634-7.6197-2.8634s-0.52917-0.68635-1.0092-1.3813c-0.77165-1.1171 1.3854-1.4545 0.50591-5.8673-0.67549-3.3891-2.7214-5.8828-5.2452-5.9226-0.0201-3.2e-4 -0.0403-5.2e-4 -0.0605-5.2e-4zm0.56482 2.6613c0.73221 2e-3 1.5672 0.57126 2.2159 2.0144 1.6608 3.6943 0.13539 5.4229 0.13539 5.4229s-3.1859-1.8644-3.9315-4.4742c-0.45437-1.5903 0.43802-2.9665 1.5803-2.9631zm3.1326 10.196 0.83664 1.0413s-2.126 1.1818-1.8888 3.5543c0.30472 3.0472 3.7956 2.4743 3.7956 2.4743s-1.2876-0.57639-1.4232-1.5932 0.98289-1.6268 0.98289-1.6268l3.0505 5.1516s-4.0519 2.4838-6.4058-0.40669c-3.6389-4.4684 1.0521-8.5948 1.0521-8.5948zm4.4256 2.9792c0.70587 6e-3 1.9554 0.1548 2.7244 1.0402 1.1185 1.2879 0.64403 3.0843-0.23719 3.1182s-3.0169-4.1346-3.0169-4.1346 0.20883-0.0267 0.52968-0.0238z"/>
<path d="m164.75 123.95s-6.9274 7.1884-3.9847 14.316c3.818 9.2479 13.284 8.4749 13.284 8.4749v-2.7096s-9.6954-0.62835-11.529-8.5764c-1.5709-6.8106 2.2296-11.505 2.2296-11.505z"/>
<path d="m167.86 124.11s-7.651 6.6125-1.5425 13.999c2.5624 3.0984 7.8124 3.2891 7.8124 3.2891s0.25557-1.6362-0.23551-2.2161-0.96084-0.45965-1.6641-0.56822c-1.7118-0.26426-4.5759-1.4947-5.811-4.778-1.5284-4.0631 1.4406-9.7255 1.4406-9.7255z"/>
</g>
<path d="m200.92 117s-6.7844 2.2499-10.158 6.2565c0.58832 0.34813 1.1218 0.80641 1.5849 1.341 0.61479 0.70967 1.1208 1.5573 1.51 2.5037 0.4562-0.90991 1.2185-1.555 1.2185-1.555s-0.86262 5.3072 6.7174 10.868c7.0239 5.1528 8.3085 8.5229 8.4114 12.511 0.0604 2.3409-2.0815 4.5269-2.0815 4.5269s0.47438-4.0434-1.6366-7.8068c-0.70516-1.2571-1.8856-2.4814-2.9916-3.4618 0.10327 1.099-0.0631 2.0695-0.34468 2.8412-0.31628 0.86692-0.55579 0.99955-0.8692 1.3808 0.90112 0.83458 3.9819 3.8626 3.4277 8.0744-0.196 1.4896-1.0083 2.6508-2.0872 3.3833 1.534 0.18209 3.5472-0.0879 6.1314-1.327 6.7645-3.2437 6.7931-11.998 5.1496-16.363s-6.4838-7.7649-6.4838-7.7649 1.0783 1.2324 1.3865 2.5678c0.30816 1.3354 0.16485 2.9166 0.16485 2.9166s-5.8436-5.7176-9.0413-8.2476c-4.6003-3.6397-2.7547-7.0974-2.0888-9.7131 0.42878-1.6842 2.08-2.9321 2.08-2.9321z" fill="url(#a)" stroke-width=".13229"/>
<path d="m195.9 112.27c-8.4543 0-15.659 5.2992-18.315 12.691l1.096 0.68419c2.3977-7.0371 9.1909-12.111 17.219-12.111 8.0038 0 14.782 5.043 17.199 12.047l1.094-0.6842c-2.6753-7.3578-9.8638-12.626-18.293-12.626z" color="#000000" fill="#fff" fill-opacity=".53559" style="-inkscape-stroke:none"/>
<path d="m195.9 108.5c-9.723 0-18.036 6.0485-21.339 14.568l1.0893 0.68006c3.0552-8.1688 10.963-13.984 20.25-13.984 9.2618 0 17.153 5.7844 20.226 13.919l1.0888-0.68057c-3.3212-8.4843-11.617-14.501-21.315-14.501z" color="#000000" fill="#fff" fill-opacity=".32881" style="-inkscape-stroke:none"/>
<path d="m195.9 104.99c-10.878 0-20.195 6.7838-24.05 16.392l1.0852 0.67696c3.6137-9.2616 12.532-15.805 22.965-15.805 10.408 0 19.308 6.5124 22.939 15.739l1.0847-0.67799c-3.8727-9.5721-13.171-16.324-24.024-16.324z" color="#000000" fill="#fff" fill-opacity=".21356" style="-inkscape-stroke:none"/>
</g>
</svg>
