<?xml version="1.0" standalone="no"?>
<!DOCTYPE svg PUBLIC "-//W3C//DTD SVG 20010904//EN"
 "http://www.w3.org/TR/2001/REC-SVG-20010904/DTD/svg10.dtd">
<svg version="1.0" xmlns="http://www.w3.org/2000/svg"
 width="569.000000pt" height="569.000000pt" viewBox="0 0 569.000000 569.000000"
 preserveAspectRatio="xMidYMid meet">
<metadata>
Created by potrace 1.14, written by Peter Selinger 2001-2017
</metadata>
<g transform="translate(0.000000,569.000000) scale(0.100000,-0.100000)"
fill="#000000" stroke="none">
<path d="M3156 5657 c-10 -52 -110 -246 -166 -319 -112 -148 -203 -224 -570
-479 -510 -355 -708 -585 -787 -914 -10 -41 -11 -212 -2 -270 57 -357 334
-658 774 -840 48 -20 89 -35 90 -33 2 2 -19 30 -47 63 -125 146 -259 343 -316
466 -69 148 -92 251 -87 389 9 253 159 491 505 801 47 42 110 99 140 125 123
110 277 265 300 303 24 39 59 55 61 29 3 -36 -45 -250 -81 -360 -11 -34 -19
-63 -17 -64 2 -2 38 31 80 74 255 256 340 513 263 798 -16 61 -87 211 -115
242 l-19 22 -6 -33z"/>
<path d="M3074 4493 c-54 -59 -122 -132 -150 -162 -29 -31 -52 -60 -52 -66 0
-5 43 -26 97 -46 282 -104 444 -250 518 -467 52 -155 37 -380 -41 -581 -35
-90 -100 -223 -137 -278 -27 -42 -14 -43 74 -8 233 95 467 310 560 516 103
225 95 474 -21 673 -20 34 -38 63 -42 66 -4 3 -11 12 -16 22 -11 20 -77 90
-130 138 -106 97 -284 199 -457 264 -53 20 -99 36 -101 36 -2 0 -48 -48 -102
-107z"/>
<path d="M2534 4223 c-104 -98 -157 -215 -156 -343 0 -89 14 -154 47 -226 27
-59 94 -133 143 -158 30 -15 34 -15 64 0 69 36 133 51 206 49 70 -2 74 -1 86
24 16 31 12 91 -9 134 -9 18 -61 79 -116 137 -136 141 -189 238 -207 378 l-7
54 -51 -49z"/>
<path d="M2785 3468 c-88 -11 -174 -58 -235 -125 -149 -168 -116 -409 74 -540
68 -47 125 -62 231 -59 74 1 100 6 147 28 232 108 295 390 128 572 -88 95
-216 141 -345 124z"/>
<path d="M1860 2709 c562 -376 517 -338 534 -444 3 -16 8 -41 11 -55 2 -14 23
-119 45 -235 23 -115 54 -275 70 -355 16 -80 31 -157 34 -171 2 -15 23 -121
45 -235 22 -115 43 -222 46 -239 2 -16 7 -41 10 -55 10 -45 25 -123 51 -255
14 -71 27 -139 29 -150 3 -11 13 -67 24 -125 38 -203 75 -380 78 -376 2 2 8
28 13 57 5 30 12 68 15 84 4 17 24 124 46 240 21 116 46 242 54 280 8 39 17
84 20 100 2 17 7 41 10 55 11 57 27 136 30 155 5 33 16 87 25 130 5 22 11 54
14 70 3 17 17 91 31 165 15 74 32 169 40 210 7 41 32 172 55 290 23 118 44
224 46 235 2 11 8 43 14 70 15 72 19 94 25 138 12 76 -14 54 345 289 606 396
718 471 695 465 -11 -4 -204 -63 -430 -133 -225 -69 -468 -144 -540 -166 -71
-22 -166 -51 -210 -65 -44 -13 -126 -38 -182 -55 l-103 -31 -487 148 c-269 81
-522 158 -563 171 -41 12 -122 37 -180 54 -58 17 -132 40 -165 50 -33 10 -71
21 -85 25 -14 4 207 -147 490 -336z"/>
</g>
</svg>
